<?xml version="1.0" standalone="no"?>
<svg xmlns:xlink="http://www.w3.org/1999/xlink" id="wave" style="transform:rotate(180deg); transition: 0.3s" viewBox="0 0 1440 450" version="1.1" xmlns="http://www.w3.org/2000/svg"><defs><linearGradient id="sw-gradient-0" x1="0" x2="0" y1="1" y2="0"><stop stop-color="#D5D504" offset="0%"/><stop stop-color="#E7E703" offset="100%"/></linearGradient></defs><path style="transform:translate(0, 0px); opacity:1" fill="url(#sw-gradient-0)" d="M0,0L120,60C240,120,480,240,720,307.5C960,375,1200,390,1440,367.5C1680,345,1920,285,2160,277.5C2400,270,2640,315,2880,285C3120,255,3360,150,3600,157.5C3840,165,4080,285,4320,337.5C4560,390,4800,375,5040,337.5C5280,300,5520,240,5760,210C6000,180,6240,180,6480,180C6720,180,6960,180,7200,165C7440,150,7680,120,7920,90C8160,60,8400,30,8640,75C8880,120,9120,240,9360,270C9600,300,9840,240,10080,195C10320,150,10560,120,10800,97.5C11040,75,11280,60,11520,75C11760,90,12000,135,12240,187.5C12480,240,12720,300,12960,330C13200,360,13440,360,13680,360C13920,360,14160,360,14400,315C14640,270,14880,180,15120,127.5C15360,75,15600,60,15840,105C16080,150,16320,255,16560,255C16800,255,17040,150,17160,97.5L17280,45L17280,450L17160,450C17040,450,16800,450,16560,450C16320,450,16080,450,15840,450C15600,450,15360,450,15120,450C14880,450,14640,450,14400,450C14160,450,13920,450,13680,450C13440,450,13200,450,12960,450C12720,450,12480,450,12240,450C12000,450,11760,450,11520,450C11280,450,11040,450,10800,450C10560,450,10320,450,10080,450C9840,450,9600,450,9360,450C9120,450,8880,450,8640,450C8400,450,8160,450,7920,450C7680,450,7440,450,7200,450C6960,450,6720,450,6480,450C6240,450,6000,450,5760,450C5520,450,5280,450,5040,450C4800,450,4560,450,4320,450C4080,450,3840,450,3600,450C3360,450,3120,450,2880,450C2640,450,2400,450,2160,450C1920,450,1680,450,1440,450C1200,450,960,450,720,450C480,450,240,450,120,450L0,450Z"/></svg>