<?xml version="1.0" standalone="no"?>
<svg xmlns:xlink="http://www.w3.org/1999/xlink" id="wave" style="transform:rotate(180deg); transition: 0.3s" viewBox="0 0 1440 210" version="1.1" xmlns="http://www.w3.org/2000/svg"><defs><linearGradient id="sw-gradient-0" x1="0" x2="0" y1="1" y2="0"><stop stop-color="rgba(243, 106, 62, 1)" offset="0%"/><stop stop-color="rgba(255, 179, 11, 1)" offset="100%"/></linearGradient></defs><path style="transform:translate(0, 0px); opacity:1" fill="url(#sw-gradient-0)" d="M0,84L120,101.5C240,119,480,154,720,140C960,126,1200,63,1440,35C1680,7,1920,14,2160,45.5C2400,77,2640,133,2880,147C3120,161,3360,133,3600,122.5C3840,112,4080,119,4320,126C4560,133,4800,140,5040,147C5280,154,5520,161,5760,168C6000,175,6240,182,6480,154C6720,126,6960,63,7200,31.5C7440,0,7680,0,7920,3.5C8160,7,8400,14,8640,14C8880,14,9120,7,9360,35C9600,63,9840,126,10080,147C10320,168,10560,147,10800,147C11040,147,11280,168,11520,147C11760,126,12000,63,12240,35C12480,7,12720,14,12960,21C13200,28,13440,35,13680,49C13920,63,14160,84,14400,101.5C14640,119,14880,133,15120,143.5C15360,154,15600,161,15840,161C16080,161,16320,154,16560,129.5C16800,105,17040,63,17160,42L17280,21L17280,210L17160,210C17040,210,16800,210,16560,210C16320,210,16080,210,15840,210C15600,210,15360,210,15120,210C14880,210,14640,210,14400,210C14160,210,13920,210,13680,210C13440,210,13200,210,12960,210C12720,210,12480,210,12240,210C12000,210,11760,210,11520,210C11280,210,11040,210,10800,210C10560,210,10320,210,10080,210C9840,210,9600,210,9360,210C9120,210,8880,210,8640,210C8400,210,8160,210,7920,210C7680,210,7440,210,7200,210C6960,210,6720,210,6480,210C6240,210,6000,210,5760,210C5520,210,5280,210,5040,210C4800,210,4560,210,4320,210C4080,210,3840,210,3600,210C3360,210,3120,210,2880,210C2640,210,2400,210,2160,210C1920,210,1680,210,1440,210C1200,210,960,210,720,210C480,210,240,210,120,210L0,210Z"/></svg>